G75*
%MOIN*%
%OFA0B0*%
%FSLAX24Y24*%
%IPPOS*%
%LPD*%
%AMOC8*
5,1,8,0,0,1.08239X$1,22.5*
%
%ADD10C,0.0000*%
D10*
X007480Y003630D02*
X007480Y008400D01*
X016260Y008400D01*
X017380Y007630D01*
X017380Y004380D01*
X016230Y003630D01*
X007480Y003630D01*
X010298Y003620D02*
X010300Y003664D01*
X010306Y003708D01*
X010316Y003751D01*
X010329Y003793D01*
X010347Y003833D01*
X010368Y003872D01*
X010392Y003909D01*
X010419Y003944D01*
X010450Y003976D01*
X010483Y004005D01*
X010519Y004031D01*
X010557Y004053D01*
X010597Y004072D01*
X010638Y004088D01*
X010681Y004100D01*
X010724Y004108D01*
X010768Y004112D01*
X010812Y004112D01*
X010856Y004108D01*
X010899Y004100D01*
X010942Y004088D01*
X010983Y004072D01*
X011023Y004053D01*
X011061Y004031D01*
X011097Y004005D01*
X011130Y003976D01*
X011161Y003944D01*
X011188Y003909D01*
X011212Y003872D01*
X011233Y003833D01*
X011251Y003793D01*
X011264Y003751D01*
X011274Y003708D01*
X011280Y003664D01*
X011282Y003620D01*
X011280Y003576D01*
X011274Y003532D01*
X011264Y003489D01*
X011251Y003447D01*
X011233Y003407D01*
X011212Y003368D01*
X011188Y003331D01*
X011161Y003296D01*
X011130Y003264D01*
X011097Y003235D01*
X011061Y003209D01*
X011023Y003187D01*
X010983Y003168D01*
X010942Y003152D01*
X010899Y003140D01*
X010856Y003132D01*
X010812Y003128D01*
X010768Y003128D01*
X010724Y003132D01*
X010681Y003140D01*
X010638Y003152D01*
X010597Y003168D01*
X010557Y003187D01*
X010519Y003209D01*
X010483Y003235D01*
X010450Y003264D01*
X010419Y003296D01*
X010392Y003331D01*
X010368Y003368D01*
X010347Y003407D01*
X010329Y003447D01*
X010316Y003489D01*
X010306Y003532D01*
X010300Y003576D01*
X010298Y003620D01*
X015880Y007180D02*
X015882Y007208D01*
X015888Y007235D01*
X015897Y007261D01*
X015910Y007286D01*
X015927Y007309D01*
X015946Y007329D01*
X015968Y007346D01*
X015992Y007360D01*
X016018Y007370D01*
X016045Y007377D01*
X016073Y007380D01*
X016101Y007379D01*
X016128Y007374D01*
X016155Y007365D01*
X016180Y007353D01*
X016203Y007338D01*
X016224Y007319D01*
X016242Y007298D01*
X016257Y007274D01*
X016268Y007248D01*
X016276Y007222D01*
X016280Y007194D01*
X016280Y007166D01*
X016276Y007138D01*
X016268Y007112D01*
X016257Y007086D01*
X016242Y007062D01*
X016224Y007041D01*
X016203Y007022D01*
X016180Y007007D01*
X016155Y006995D01*
X016128Y006986D01*
X016101Y006981D01*
X016073Y006980D01*
X016045Y006983D01*
X016018Y006990D01*
X015992Y007000D01*
X015968Y007014D01*
X015946Y007031D01*
X015927Y007051D01*
X015910Y007074D01*
X015897Y007099D01*
X015888Y007125D01*
X015882Y007152D01*
X015880Y007180D01*
X016680Y007180D02*
X016682Y007208D01*
X016688Y007235D01*
X016697Y007261D01*
X016710Y007286D01*
X016727Y007309D01*
X016746Y007329D01*
X016768Y007346D01*
X016792Y007360D01*
X016818Y007370D01*
X016845Y007377D01*
X016873Y007380D01*
X016901Y007379D01*
X016928Y007374D01*
X016955Y007365D01*
X016980Y007353D01*
X017003Y007338D01*
X017024Y007319D01*
X017042Y007298D01*
X017057Y007274D01*
X017068Y007248D01*
X017076Y007222D01*
X017080Y007194D01*
X017080Y007166D01*
X017076Y007138D01*
X017068Y007112D01*
X017057Y007086D01*
X017042Y007062D01*
X017024Y007041D01*
X017003Y007022D01*
X016980Y007007D01*
X016955Y006995D01*
X016928Y006986D01*
X016901Y006981D01*
X016873Y006980D01*
X016845Y006983D01*
X016818Y006990D01*
X016792Y007000D01*
X016768Y007014D01*
X016746Y007031D01*
X016727Y007051D01*
X016710Y007074D01*
X016697Y007099D01*
X016688Y007125D01*
X016682Y007152D01*
X016680Y007180D01*
X016280Y005180D02*
X016282Y005208D01*
X016288Y005235D01*
X016297Y005261D01*
X016310Y005286D01*
X016327Y005309D01*
X016346Y005329D01*
X016368Y005346D01*
X016392Y005360D01*
X016418Y005370D01*
X016445Y005377D01*
X016473Y005380D01*
X016501Y005379D01*
X016528Y005374D01*
X016555Y005365D01*
X016580Y005353D01*
X016603Y005338D01*
X016624Y005319D01*
X016642Y005298D01*
X016657Y005274D01*
X016668Y005248D01*
X016676Y005222D01*
X016680Y005194D01*
X016680Y005166D01*
X016676Y005138D01*
X016668Y005112D01*
X016657Y005086D01*
X016642Y005062D01*
X016624Y005041D01*
X016603Y005022D01*
X016580Y005007D01*
X016555Y004995D01*
X016528Y004986D01*
X016501Y004981D01*
X016473Y004980D01*
X016445Y004983D01*
X016418Y004990D01*
X016392Y005000D01*
X016368Y005014D01*
X016346Y005031D01*
X016327Y005051D01*
X016310Y005074D01*
X016297Y005099D01*
X016288Y005125D01*
X016282Y005152D01*
X016280Y005180D01*
X010298Y008400D02*
X010300Y008444D01*
X010306Y008488D01*
X010316Y008531D01*
X010329Y008573D01*
X010347Y008613D01*
X010368Y008652D01*
X010392Y008689D01*
X010419Y008724D01*
X010450Y008756D01*
X010483Y008785D01*
X010519Y008811D01*
X010557Y008833D01*
X010597Y008852D01*
X010638Y008868D01*
X010681Y008880D01*
X010724Y008888D01*
X010768Y008892D01*
X010812Y008892D01*
X010856Y008888D01*
X010899Y008880D01*
X010942Y008868D01*
X010983Y008852D01*
X011023Y008833D01*
X011061Y008811D01*
X011097Y008785D01*
X011130Y008756D01*
X011161Y008724D01*
X011188Y008689D01*
X011212Y008652D01*
X011233Y008613D01*
X011251Y008573D01*
X011264Y008531D01*
X011274Y008488D01*
X011280Y008444D01*
X011282Y008400D01*
X011280Y008356D01*
X011274Y008312D01*
X011264Y008269D01*
X011251Y008227D01*
X011233Y008187D01*
X011212Y008148D01*
X011188Y008111D01*
X011161Y008076D01*
X011130Y008044D01*
X011097Y008015D01*
X011061Y007989D01*
X011023Y007967D01*
X010983Y007948D01*
X010942Y007932D01*
X010899Y007920D01*
X010856Y007912D01*
X010812Y007908D01*
X010768Y007908D01*
X010724Y007912D01*
X010681Y007920D01*
X010638Y007932D01*
X010597Y007948D01*
X010557Y007967D01*
X010519Y007989D01*
X010483Y008015D01*
X010450Y008044D01*
X010419Y008076D01*
X010392Y008111D01*
X010368Y008148D01*
X010347Y008187D01*
X010329Y008227D01*
X010316Y008269D01*
X010306Y008312D01*
X010300Y008356D01*
X010298Y008400D01*
M02*
