G75*
%MOIN*%
%OFA0B0*%
%FSLAX24Y24*%
%IPPOS*%
%LPD*%
%AMOC8*
5,1,8,0,0,1.08239X$1,22.5*
%
%ADD10R,0.0591X0.0512*%
%ADD11R,0.0433X0.0394*%
%ADD12R,0.0551X0.0394*%
%ADD13R,0.0236X0.0866*%
%ADD14R,0.0394X0.0433*%
%ADD15R,0.0315X0.0354*%
%ADD16R,0.2000X0.1000*%
%ADD17R,0.0500X0.1000*%
%ADD18R,0.1000X0.0500*%
%ADD19C,0.0160*%
%ADD20OC8,0.0238*%
%ADD21C,0.0120*%
D10*
X012080Y006106D03*
X012080Y006854D03*
D11*
X011430Y006515D03*
X011430Y005845D03*
X011495Y005250D03*
X010825Y005250D03*
X010825Y004730D03*
X011495Y004730D03*
X012240Y004575D03*
X012240Y005245D03*
X010180Y006745D03*
X010180Y007415D03*
X015280Y005215D03*
X015280Y004545D03*
D12*
X016013Y005806D03*
X015147Y006180D03*
X016013Y006554D03*
D13*
X014430Y007204D03*
X013930Y007204D03*
X013430Y007204D03*
X012930Y007204D03*
X012930Y005156D03*
X013430Y005156D03*
X013930Y005156D03*
X014430Y005156D03*
D14*
X013485Y004290D03*
X012815Y004290D03*
X010790Y005745D03*
X010165Y006280D03*
X010790Y006415D03*
X009495Y006280D03*
D15*
X009506Y005654D03*
X010254Y005654D03*
X009880Y004866D03*
D16*
X008530Y007180D03*
D17*
X010830Y006860D03*
D18*
X016180Y004570D03*
D19*
X007610Y003760D02*
X007610Y006550D01*
X008540Y006550D01*
X008540Y005191D01*
X008526Y005138D01*
X008540Y005115D01*
X008540Y005088D01*
X008578Y005049D01*
X008606Y005002D01*
X008632Y004995D01*
X008651Y004976D01*
X008706Y004976D01*
X009593Y004745D01*
X009593Y004635D01*
X009669Y004559D01*
X009716Y004559D01*
X009727Y004429D01*
X009681Y004383D01*
X009681Y004177D01*
X009827Y004031D01*
X010033Y004031D01*
X010179Y004177D01*
X010179Y004383D01*
X010106Y004457D01*
X010096Y004564D01*
X010167Y004635D01*
X010167Y005097D01*
X010091Y005173D01*
X009669Y005173D01*
X009625Y005129D01*
X008920Y005313D01*
X008920Y006550D01*
X009126Y006550D01*
X009119Y006520D01*
X009119Y006298D01*
X009477Y006298D01*
X009477Y006262D01*
X009119Y006262D01*
X009119Y006040D01*
X009131Y005994D01*
X009154Y005953D01*
X009188Y005919D01*
X009191Y005918D01*
X009181Y005900D01*
X009169Y005855D01*
X009169Y005654D01*
X009506Y005654D01*
X009506Y006011D01*
X009506Y005654D01*
X009506Y005654D01*
X009843Y005654D01*
X009843Y005855D01*
X009831Y005900D01*
X009814Y005930D01*
X009836Y005953D01*
X009858Y005990D01*
X009914Y005933D01*
X009947Y005933D01*
X009945Y005847D01*
X009929Y005785D01*
X009943Y005763D01*
X009942Y005737D01*
X009967Y005712D01*
X009967Y005423D01*
X010043Y005347D01*
X010429Y005347D01*
X010429Y005268D01*
X010807Y005268D01*
X010807Y005232D01*
X010429Y005232D01*
X010429Y005029D01*
X010439Y004990D01*
X010429Y004951D01*
X010429Y004748D01*
X010807Y004748D01*
X010807Y004712D01*
X010429Y004712D01*
X010429Y004509D01*
X010441Y004464D01*
X010465Y004423D01*
X010498Y004389D01*
X010539Y004365D01*
X010585Y004353D01*
X010807Y004353D01*
X010807Y004712D01*
X010844Y004712D01*
X010844Y004353D01*
X011066Y004353D01*
X011111Y004365D01*
X011152Y004389D01*
X011186Y004423D01*
X011193Y004435D01*
X011224Y004403D01*
X011765Y004403D01*
X011812Y004450D01*
X011893Y004433D01*
X011893Y004325D01*
X011970Y004249D01*
X012397Y004249D01*
X012409Y004242D01*
X012414Y004229D01*
X012483Y004201D01*
X012489Y004198D01*
X012489Y004020D01*
X012565Y003943D01*
X013066Y003943D01*
X013142Y004020D01*
X013142Y004560D01*
X013106Y004597D01*
X013178Y004669D01*
X013178Y005643D01*
X013102Y005719D01*
X012758Y005719D01*
X012711Y005672D01*
X012578Y005805D01*
X012517Y005866D01*
X012517Y005866D01*
X012517Y005866D01*
X012505Y005866D01*
X012505Y006416D01*
X012474Y006447D01*
X012486Y006454D01*
X012519Y006488D01*
X012543Y006529D01*
X012555Y006574D01*
X012555Y006806D01*
X012128Y006806D01*
X012128Y006902D01*
X012555Y006902D01*
X012555Y007134D01*
X012543Y007179D01*
X012519Y007220D01*
X012486Y007254D01*
X012445Y007278D01*
X012399Y007290D01*
X012128Y007290D01*
X012128Y006902D01*
X012032Y006902D01*
X012032Y006806D01*
X011800Y006806D01*
X011791Y006822D01*
X011757Y006856D01*
X011716Y006879D01*
X011670Y006891D01*
X011448Y006891D01*
X011448Y006533D01*
X011412Y006533D01*
X011412Y006891D01*
X011210Y006891D01*
X011210Y007414D01*
X011159Y007465D01*
X011323Y007465D01*
X011373Y007450D01*
X011399Y007465D01*
X011429Y007465D01*
X011465Y007501D01*
X011988Y007789D01*
X012700Y007780D01*
X012668Y007747D01*
X012644Y007706D01*
X012632Y007660D01*
X012632Y007204D01*
X012930Y007204D01*
X012930Y007204D01*
X012632Y007204D01*
X012632Y006747D01*
X012644Y006701D01*
X012668Y006660D01*
X012701Y006627D01*
X012742Y006603D01*
X012788Y006591D01*
X012930Y006591D01*
X013072Y006591D01*
X013118Y006603D01*
X013159Y006627D01*
X013181Y006649D01*
X013181Y006477D01*
X013327Y006331D01*
X013533Y006331D01*
X013679Y006477D01*
X013679Y006683D01*
X013662Y006700D01*
X013678Y006717D01*
X013678Y007691D01*
X013620Y007749D01*
X013620Y007959D01*
X013621Y008036D01*
X013620Y008037D01*
X013620Y008039D01*
X013565Y008093D01*
X013511Y008149D01*
X013510Y008149D01*
X013509Y008150D01*
X013431Y008150D01*
X011968Y008170D01*
X011917Y008184D01*
X011892Y008171D01*
X011864Y008171D01*
X011826Y008134D01*
X011301Y007845D01*
X011075Y007845D01*
X011142Y007873D01*
X011317Y008048D01*
X011410Y008270D01*
X016220Y008270D01*
X017250Y007562D01*
X017250Y004450D01*
X016191Y003760D01*
X011405Y003760D01*
X011317Y003972D01*
X011142Y004147D01*
X010914Y004242D01*
X010666Y004242D01*
X010438Y004147D01*
X010263Y003972D01*
X010175Y003760D01*
X007610Y003760D01*
X007610Y003895D02*
X010230Y003895D01*
X010343Y004053D02*
X010055Y004053D01*
X010179Y004212D02*
X010592Y004212D01*
X010531Y004370D02*
X010179Y004370D01*
X010099Y004529D02*
X010429Y004529D01*
X010429Y004687D02*
X010167Y004687D01*
X010167Y004846D02*
X010429Y004846D01*
X010436Y005004D02*
X010167Y005004D01*
X010102Y005163D02*
X010429Y005163D01*
X010429Y005321D02*
X009754Y005321D01*
X009774Y005332D02*
X009808Y005366D01*
X009831Y005407D01*
X009843Y005453D01*
X009843Y005654D01*
X009506Y005654D01*
X009506Y005654D01*
X009506Y005654D01*
X009169Y005654D01*
X009169Y005453D01*
X009181Y005407D01*
X009204Y005366D01*
X009238Y005332D01*
X009279Y005309D01*
X009325Y005297D01*
X009506Y005297D01*
X009687Y005297D01*
X009733Y005309D01*
X009774Y005332D01*
X009843Y005480D02*
X009967Y005480D01*
X009967Y005638D02*
X009843Y005638D01*
X009843Y005797D02*
X009932Y005797D01*
X009892Y005955D02*
X009837Y005955D01*
X009514Y006011D02*
X009506Y006011D01*
X009477Y006011D01*
X009477Y006262D01*
X009514Y006262D01*
X009514Y006011D01*
X009506Y005955D02*
X009506Y005955D01*
X009506Y005797D02*
X009506Y005797D01*
X009169Y005797D02*
X008920Y005797D01*
X008920Y005955D02*
X009153Y005955D01*
X009119Y006114D02*
X008920Y006114D01*
X008920Y006272D02*
X009477Y006272D01*
X009477Y006114D02*
X009514Y006114D01*
X010165Y006280D02*
X010154Y005819D01*
X010254Y005654D01*
X010807Y005232D02*
X010844Y005232D01*
X010844Y004873D01*
X010844Y004748D01*
X010807Y004748D01*
X010807Y005232D01*
X010825Y005250D02*
X010825Y004730D01*
X010807Y004687D02*
X010844Y004687D01*
X010844Y004529D02*
X010807Y004529D01*
X010807Y004370D02*
X010844Y004370D01*
X010988Y004212D02*
X012457Y004212D01*
X012489Y004053D02*
X011237Y004053D01*
X011350Y003895D02*
X016398Y003895D01*
X016641Y004053D02*
X013811Y004053D01*
X013811Y004020D02*
X013811Y004560D01*
X013779Y004593D01*
X014102Y004593D01*
X014178Y004669D01*
X014178Y005643D01*
X014102Y005719D01*
X013758Y005719D01*
X013682Y005643D01*
X013682Y004669D01*
X013715Y004637D01*
X013645Y004637D01*
X013678Y004669D01*
X013678Y005643D01*
X013602Y005719D01*
X013258Y005719D01*
X013182Y005643D01*
X013182Y004669D01*
X013220Y004631D01*
X013220Y004623D01*
X013158Y004560D01*
X013158Y004020D01*
X013234Y003943D01*
X013735Y003943D01*
X013811Y004020D01*
X013811Y004212D02*
X014046Y004212D01*
X014031Y004227D02*
X014177Y004081D01*
X014383Y004081D01*
X014442Y004140D01*
X015005Y004140D01*
X015008Y004137D01*
X015084Y004140D01*
X015159Y004140D01*
X015162Y004143D01*
X015166Y004143D01*
X015217Y004198D01*
X015237Y004219D01*
X015531Y004219D01*
X015536Y004209D01*
X015569Y004176D01*
X015611Y004152D01*
X015656Y004140D01*
X016135Y004140D01*
X016135Y004525D01*
X016225Y004525D01*
X016225Y004615D01*
X016860Y004615D01*
X016860Y004844D01*
X016848Y004889D01*
X016824Y004931D01*
X016791Y004964D01*
X016753Y004986D01*
X016760Y004993D01*
X016810Y005114D01*
X016810Y005131D01*
X016983Y005131D01*
X017129Y005277D01*
X017129Y005483D01*
X016983Y005629D01*
X016978Y005629D01*
X016650Y006380D01*
X016645Y006948D01*
X016693Y006900D01*
X016814Y006850D01*
X016946Y006850D01*
X017067Y006900D01*
X017160Y006993D01*
X017210Y007114D01*
X017210Y007246D01*
X017160Y007367D01*
X017067Y007460D01*
X016946Y007510D01*
X016814Y007510D01*
X016693Y007460D01*
X016641Y007408D01*
X016640Y007520D01*
X016653Y007575D01*
X016640Y007596D01*
X016639Y007620D01*
X016599Y007660D01*
X016568Y007708D01*
X016544Y007714D01*
X016527Y007731D01*
X016470Y007730D01*
X015133Y008029D01*
X015033Y008129D01*
X014827Y008129D01*
X014681Y007983D01*
X014681Y007777D01*
X014827Y007631D01*
X015033Y007631D01*
X015059Y007657D01*
X015909Y007466D01*
X015893Y007460D01*
X015800Y007367D01*
X015750Y007246D01*
X015750Y007114D01*
X015800Y006993D01*
X015893Y006900D01*
X015940Y006881D01*
X015684Y006881D01*
X015607Y006805D01*
X015607Y006303D01*
X015684Y006227D01*
X016302Y006227D01*
X016323Y006180D01*
X016312Y006183D01*
X016031Y006183D01*
X016031Y005824D01*
X015995Y005824D01*
X015995Y005788D01*
X015557Y005788D01*
X015557Y005585D01*
X015570Y005540D01*
X015593Y005499D01*
X015627Y005465D01*
X015668Y005441D01*
X015714Y005429D01*
X015995Y005429D01*
X015995Y005788D01*
X016031Y005788D01*
X016031Y005429D01*
X016262Y005429D01*
X016200Y005367D01*
X016150Y005246D01*
X016150Y005114D01*
X016200Y004993D01*
X016225Y004968D01*
X016225Y004615D01*
X016135Y004615D01*
X016135Y005000D01*
X015656Y005000D01*
X015627Y004992D01*
X015627Y005465D01*
X015550Y005541D01*
X015490Y005541D01*
X015490Y005567D01*
X015357Y005700D01*
X015357Y005853D01*
X015476Y005853D01*
X015553Y005929D01*
X015553Y006431D01*
X015476Y006507D01*
X014817Y006507D01*
X014741Y006431D01*
X014741Y006390D01*
X014640Y006390D01*
X014640Y006679D01*
X014678Y006717D01*
X014678Y007691D01*
X014602Y007767D01*
X014258Y007767D01*
X014182Y007691D01*
X014182Y006717D01*
X014220Y006679D01*
X014220Y006093D01*
X014343Y005970D01*
X014741Y005970D01*
X014741Y005929D01*
X014817Y005853D01*
X014937Y005853D01*
X014937Y005526D01*
X014966Y005497D01*
X014933Y005465D01*
X014933Y005179D01*
X014833Y005279D01*
X014678Y005279D01*
X014678Y005643D01*
X014602Y005719D01*
X014258Y005719D01*
X014182Y005643D01*
X014182Y004669D01*
X014258Y004593D01*
X014602Y004593D01*
X014678Y004669D01*
X014678Y004781D01*
X014833Y004781D01*
X014975Y004923D01*
X015010Y004888D01*
X015512Y004888D01*
X015508Y004872D01*
X015010Y004872D01*
X014933Y004796D01*
X014933Y004520D01*
X014442Y004520D01*
X014383Y004579D01*
X014177Y004579D01*
X014031Y004433D01*
X014031Y004227D01*
X014031Y004370D02*
X013811Y004370D01*
X013811Y004529D02*
X014126Y004529D01*
X014178Y004687D02*
X014182Y004687D01*
X014178Y004846D02*
X014182Y004846D01*
X014178Y005004D02*
X014182Y005004D01*
X014430Y005156D02*
X014556Y005030D01*
X014730Y005030D01*
X014898Y004846D02*
X014983Y004846D01*
X014933Y004687D02*
X014678Y004687D01*
X014434Y004529D02*
X014933Y004529D01*
X015230Y004212D02*
X015535Y004212D01*
X016135Y004212D02*
X016225Y004212D01*
X016225Y004140D02*
X016704Y004140D01*
X016749Y004152D01*
X016791Y004176D01*
X016824Y004209D01*
X016848Y004251D01*
X016860Y004296D01*
X016860Y004525D01*
X016225Y004525D01*
X016225Y004140D01*
X016225Y004370D02*
X016135Y004370D01*
X016225Y004529D02*
X017250Y004529D01*
X017250Y004687D02*
X016860Y004687D01*
X016860Y004846D02*
X017250Y004846D01*
X017250Y005004D02*
X016764Y005004D01*
X017015Y005163D02*
X017250Y005163D01*
X017250Y005321D02*
X017129Y005321D01*
X017129Y005480D02*
X017250Y005480D01*
X017250Y005638D02*
X016974Y005638D01*
X016629Y005480D02*
X016619Y005480D01*
X016631Y005475D02*
X016631Y005475D01*
X016469Y005846D01*
X016469Y005824D01*
X016032Y005824D01*
X016032Y005788D01*
X016469Y005788D01*
X016469Y005585D01*
X016456Y005540D01*
X016439Y005510D01*
X016546Y005510D01*
X016631Y005475D01*
X016560Y005638D02*
X016469Y005638D01*
X016490Y005797D02*
X016032Y005797D01*
X015995Y005797D02*
X015357Y005797D01*
X015557Y005824D02*
X015557Y006027D01*
X015570Y006072D01*
X015593Y006113D01*
X015627Y006147D01*
X015668Y006171D01*
X015714Y006183D01*
X015995Y006183D01*
X015995Y005824D01*
X015557Y005824D01*
X015553Y005955D02*
X015557Y005955D01*
X015553Y006114D02*
X015594Y006114D01*
X015553Y006272D02*
X015639Y006272D01*
X015607Y006431D02*
X015553Y006431D01*
X015607Y006589D02*
X014640Y006589D01*
X014640Y006431D02*
X014741Y006431D01*
X014678Y006748D02*
X015607Y006748D01*
X015887Y006906D02*
X014678Y006906D01*
X014678Y007065D02*
X015771Y007065D01*
X015750Y007223D02*
X014678Y007223D01*
X014678Y007382D02*
X015815Y007382D01*
X015579Y007540D02*
X014678Y007540D01*
X014670Y007699D02*
X014759Y007699D01*
X014681Y007857D02*
X013620Y007857D01*
X013621Y008016D02*
X014713Y008016D01*
X015194Y008016D02*
X016590Y008016D01*
X016820Y007857D02*
X015903Y007857D01*
X016359Y008174D02*
X011953Y008174D01*
X011898Y008174D02*
X011370Y008174D01*
X011285Y008016D02*
X011611Y008016D01*
X011324Y007857D02*
X011105Y007857D01*
X011536Y007540D02*
X012632Y007540D01*
X012632Y007382D02*
X011210Y007382D01*
X011210Y007223D02*
X011643Y007223D01*
X011641Y007220D02*
X011617Y007179D01*
X011605Y007134D01*
X011605Y006902D01*
X012032Y006902D01*
X012032Y007290D01*
X011761Y007290D01*
X011715Y007278D01*
X011674Y007254D01*
X011641Y007220D01*
X011605Y007065D02*
X011210Y007065D01*
X011210Y006906D02*
X011605Y006906D01*
X011448Y006748D02*
X011412Y006748D01*
X011412Y006589D02*
X011448Y006589D01*
X012032Y006906D02*
X012128Y006906D01*
X012128Y007065D02*
X012032Y007065D01*
X012032Y007223D02*
X012128Y007223D01*
X012517Y007223D02*
X012632Y007223D01*
X012930Y007204D02*
X012930Y007204D01*
X012930Y006591D01*
X012930Y007204D01*
X012930Y007065D02*
X012930Y007065D01*
X012930Y006906D02*
X012930Y006906D01*
X012930Y006748D02*
X012930Y006748D01*
X013181Y006589D02*
X012555Y006589D01*
X012555Y006748D02*
X012632Y006748D01*
X012632Y006906D02*
X012555Y006906D01*
X012555Y007065D02*
X012632Y007065D01*
X013430Y007204D02*
X013430Y006580D01*
X013679Y006589D02*
X013681Y006589D01*
X013681Y006683D02*
X013681Y006477D01*
X013827Y006331D01*
X014033Y006331D01*
X014179Y006477D01*
X014179Y006683D01*
X014162Y006700D01*
X014178Y006717D01*
X014178Y007691D01*
X014102Y007767D01*
X013758Y007767D01*
X013682Y007691D01*
X013682Y006717D01*
X013698Y006700D01*
X013681Y006683D01*
X013678Y006748D02*
X013682Y006748D01*
X013678Y006906D02*
X013682Y006906D01*
X013678Y007065D02*
X013682Y007065D01*
X013678Y007223D02*
X013682Y007223D01*
X013678Y007382D02*
X013682Y007382D01*
X013678Y007540D02*
X013682Y007540D01*
X013670Y007699D02*
X013690Y007699D01*
X014170Y007699D02*
X014190Y007699D01*
X014178Y007540D02*
X014182Y007540D01*
X014178Y007382D02*
X014182Y007382D01*
X014178Y007223D02*
X014182Y007223D01*
X014430Y007204D02*
X014430Y006180D01*
X015147Y006180D01*
X015147Y005613D01*
X015280Y005480D01*
X015280Y005215D01*
X015627Y005163D02*
X016150Y005163D01*
X016181Y005321D02*
X015627Y005321D01*
X015612Y005480D02*
X015613Y005480D01*
X015557Y005638D02*
X015419Y005638D01*
X014937Y005638D02*
X014678Y005638D01*
X014678Y005480D02*
X014948Y005480D01*
X014933Y005321D02*
X014678Y005321D01*
X014182Y005321D02*
X014178Y005321D01*
X014178Y005163D02*
X014182Y005163D01*
X014178Y005480D02*
X014182Y005480D01*
X014178Y005638D02*
X014182Y005638D01*
X013682Y005638D02*
X013678Y005638D01*
X013678Y005480D02*
X013682Y005480D01*
X013678Y005321D02*
X013682Y005321D01*
X013678Y005163D02*
X013682Y005163D01*
X013430Y005156D02*
X013430Y004265D01*
X013485Y004290D01*
X013158Y004212D02*
X013142Y004212D01*
X013142Y004370D02*
X013158Y004370D01*
X013142Y004529D02*
X013158Y004529D01*
X013178Y004687D02*
X013182Y004687D01*
X013178Y004846D02*
X013182Y004846D01*
X013178Y005004D02*
X013182Y005004D01*
X013178Y005163D02*
X013182Y005163D01*
X013178Y005321D02*
X013182Y005321D01*
X013178Y005480D02*
X013182Y005480D01*
X013178Y005638D02*
X013182Y005638D01*
X012930Y005156D02*
X012430Y005656D01*
X012101Y005656D01*
X012100Y005680D01*
X012080Y006106D01*
X012505Y006114D02*
X014220Y006114D01*
X014220Y006272D02*
X012505Y006272D01*
X012490Y006431D02*
X013227Y006431D01*
X013633Y006431D02*
X013727Y006431D01*
X013930Y006580D02*
X013930Y007204D01*
X014178Y007065D02*
X014182Y007065D01*
X014178Y006906D02*
X014182Y006906D01*
X014178Y006748D02*
X014182Y006748D01*
X014179Y006589D02*
X014220Y006589D01*
X014220Y006431D02*
X014133Y006431D01*
X014741Y005955D02*
X012505Y005955D01*
X012586Y005797D02*
X014937Y005797D01*
X015995Y005955D02*
X016031Y005955D01*
X016031Y006114D02*
X015995Y006114D01*
X016697Y006272D02*
X017250Y006272D01*
X017250Y006114D02*
X016766Y006114D01*
X016836Y005955D02*
X017250Y005955D01*
X017250Y005797D02*
X016905Y005797D01*
X016031Y005638D02*
X015995Y005638D01*
X015995Y005480D02*
X016031Y005480D01*
X016196Y005004D02*
X015627Y005004D01*
X016135Y004846D02*
X016225Y004846D01*
X016225Y004687D02*
X016135Y004687D01*
X016860Y004370D02*
X017127Y004370D01*
X016884Y004212D02*
X016825Y004212D01*
X013682Y004687D02*
X013678Y004687D01*
X013678Y004846D02*
X013682Y004846D01*
X013678Y005004D02*
X013682Y005004D01*
X012815Y004290D02*
X012575Y004390D01*
X012240Y004575D01*
X011495Y004730D01*
X010844Y004846D02*
X010807Y004846D01*
X010807Y005004D02*
X010844Y005004D01*
X010844Y005163D02*
X010807Y005163D01*
X011480Y005280D02*
X011430Y005845D01*
X011480Y005280D02*
X011515Y005280D01*
X011508Y005277D01*
X011502Y005272D01*
X011497Y005265D01*
X011495Y005258D01*
X011495Y005250D01*
X012215Y005130D01*
X012240Y005245D01*
X011893Y004370D02*
X011119Y004370D01*
X009805Y004053D02*
X007610Y004053D01*
X007610Y004212D02*
X009681Y004212D01*
X009681Y004370D02*
X007610Y004370D01*
X007610Y004529D02*
X009718Y004529D01*
X009593Y004687D02*
X007610Y004687D01*
X007610Y004846D02*
X009207Y004846D01*
X009497Y005163D02*
X009658Y005163D01*
X009506Y005297D02*
X009506Y005654D01*
X009506Y005654D01*
X009506Y005297D01*
X009506Y005321D02*
X009506Y005321D01*
X009506Y005480D02*
X009506Y005480D01*
X009506Y005638D02*
X009506Y005638D01*
X009169Y005638D02*
X008920Y005638D01*
X008920Y005480D02*
X009169Y005480D01*
X009258Y005321D02*
X008920Y005321D01*
X008540Y005321D02*
X007610Y005321D01*
X007610Y005163D02*
X008533Y005163D01*
X008605Y005004D02*
X007610Y005004D01*
X007610Y005480D02*
X008540Y005480D01*
X008540Y005638D02*
X007610Y005638D01*
X007610Y005797D02*
X008540Y005797D01*
X008540Y005955D02*
X007610Y005955D01*
X007610Y006114D02*
X008540Y006114D01*
X008540Y006272D02*
X007610Y006272D01*
X007610Y006431D02*
X008540Y006431D01*
X008920Y006431D02*
X009119Y006431D01*
X010165Y006280D02*
X010180Y006280D01*
X010180Y006745D01*
X011823Y007699D02*
X012642Y007699D01*
X016574Y007699D02*
X017051Y007699D01*
X017250Y007540D02*
X016645Y007540D01*
X017145Y007382D02*
X017250Y007382D01*
X017250Y007223D02*
X017210Y007223D01*
X017189Y007065D02*
X017250Y007065D01*
X017250Y006906D02*
X017073Y006906D01*
X017250Y006748D02*
X016647Y006748D01*
X016645Y006906D02*
X016687Y006906D01*
X016648Y006589D02*
X017250Y006589D01*
X017250Y006431D02*
X016649Y006431D01*
X013158Y004053D02*
X013142Y004053D01*
D20*
X014280Y004330D03*
X014730Y005030D03*
X015480Y005680D03*
X015780Y005330D03*
X016880Y005380D03*
X015610Y006210D03*
X015530Y007030D03*
X014930Y007880D03*
X013930Y006580D03*
X013430Y006580D03*
X012130Y005630D03*
X010330Y004630D03*
X009930Y004280D03*
X010000Y003880D03*
X011910Y003900D03*
X009080Y005830D03*
X008030Y005830D03*
X015480Y004080D03*
X017080Y006430D03*
D21*
X016460Y006340D02*
X016450Y007540D01*
X014930Y007880D01*
X013430Y007960D02*
X013430Y007204D01*
X013430Y007960D02*
X011940Y007980D01*
X011350Y007655D01*
X010595Y007655D01*
X010350Y007410D01*
X010180Y007415D01*
X010830Y006860D02*
X010790Y006720D01*
X010790Y006415D01*
X011130Y005745D02*
X011430Y005845D01*
X011130Y005745D02*
X010790Y005745D01*
X012100Y005680D02*
X012100Y005630D01*
X012130Y005630D01*
X009880Y004866D02*
X009930Y004280D01*
X009880Y004866D02*
X008730Y005166D01*
X008730Y007230D01*
X008530Y007180D01*
X014280Y004330D02*
X015080Y004330D01*
X015280Y004545D01*
X016880Y005380D02*
X016460Y006340D01*
M02*
